<?xml version="1.0" encoding="utf-8"?>
<!-- Generator: Adobe Illustrator 16.0.0, SVG Export Plug-In . SVG Version: 6.00 Build 0)  -->
<!DOCTYPE svg PUBLIC "-//W3C//DTD SVG 1.1//EN" "http://www.w3.org/Graphics/SVG/1.1/DTD/svg11.dtd">
<svg version="1.1" id="Capa_1" xmlns="http://www.w3.org/2000/svg" xmlns:xlink="http://www.w3.org/1999/xlink" x="0px" y="0px"
	 width="150px" height="150px" viewBox="0 0 150 150" enable-background="new 0 0 150 150" xml:space="preserve">
<g>
	<g transform="translate(0.000000,512.000000) scale(0.100000,-0.100000)">
		<path fill="#ffffff" d="M736.763,4993.5c-89.321-82.627-205.225-128.369-354.912-139.858
			c-34.243-2.632-117.832-1.431-126.211,1.675c-3.594,1.436-3.833-19.155-3.11-287.861c0.728-286.187,0.728-289.761,5.747-311.069
			c19.155-80.723,61.548-152.09,134.585-227.285c80.469-82.363,197.817-165,325.459-228.711l34.014-16.992l40.234,20.098
			c128.369,65.137,240.918,144.902,321.387,227.988c71.377,74.004,113.525,145.605,132.432,224.883
			c5.039,21.309,5.039,25.156,5.742,311.069c0.732,268.95,0.469,289.307-3.105,287.866c-8.633-3.359-91.963-4.302-127.881-1.67
			c-146.318,11.25-258.887,55.317-348.691,136.021c-10.771,9.58-20.117,17.485-20.352,17.485
			C751.611,5006.914,744.673,5000.917,736.763,4993.5z M768.857,4894.824c83.818-61.309,190.635-99.858,317.549-113.994
			c17.256-1.909,39.756-3.599,50.537-3.599s24.424-0.708,30.664-1.436l11.006-1.675v-226.548c0-127.393-1.201-235.894-2.383-248.101
			c-7.92-73.535-45.029-141.055-119.512-217.695c-70.645-72.07-166.445-141.523-275.889-199.727l-27.783-14.844l-23.711,12.461
			c-157.563,81.172-293.115,193.496-355.625,294.082c-20.83,33.535-36.88,74.004-42.632,106.328
			c-1.675,9.336-2.637,97.227-2.637,254.097v239.961l11.011,1.675c6.235,0.723,18.921,1.436,28.262,1.436
			c57.954,0,157.578,18.682,219.365,40.708c54.36,19.395,112.798,49.814,149.673,77.598c7.905,5.747,14.849,10.776,15.327,10.776
			C752.568,4906.567,760.01,4901.298,768.857,4894.824z"/>
		<path fill="#ffffff" d="M846.924,4447.475c-72.07-106.577-132.422-194.937-134.097-196.851
			c-2.637-2.637-17.246,7.168-84.536,54.844c-44.78,31.855-82.383,57.695-83.579,57.48c-0.962-0.254-11.25-13.672-22.754-29.707
			c-15.571-22.012-19.878-29.688-17.959-31.855c7.432-7.422,225.835-160.684,227.036-159.238
			c0.962,0.957,68.262,99.863,149.434,219.59c81.426,119.985,151.113,222.476,154.951,227.993l6.699,10.049l-29.688,20.361
			c-16.523,11.25-30.898,20.591-32.1,20.591C978.887,4640.742,919.014,4553.813,846.924,4447.475z"/>
	</g>
</g>
</svg>
