<?xml version="1.0" encoding="utf-8"?>
<!-- Generator: Adobe Illustrator 16.0.0, SVG Export Plug-In . SVG Version: 6.00 Build 0)  -->
<!DOCTYPE svg PUBLIC "-//W3C//DTD SVG 1.1//EN" "http://www.w3.org/Graphics/SVG/1.1/DTD/svg11.dtd">
<svg version="1.1" id="Capa_1" xmlns="http://www.w3.org/2000/svg" xmlns:xlink="http://www.w3.org/1999/xlink" x="0px" y="0px"
	 width="150px" height="150px" viewBox="0 0 150 150" enable-background="new 0 0 150 150" xml:space="preserve">
<g id="Livello_3">
</g>
<g id="Livello_2">
	<g>
		<g>
			<path fill="#EAE100" d="M75.126,26.948c2.901,0,5.248-2.349,5.248-5.247V9.493c0-2.899-2.347-5.248-5.248-5.248
				c-2.9,0-5.248,2.349-5.248,5.248v12.208C69.878,24.599,72.226,26.948,75.126,26.948z"/>
			<path fill="#EAE100" d="M40.689,34.594c1.032,1.415,2.631,2.165,4.255,2.165c1.066,0,2.146-0.325,3.078-1.002
				c2.344-1.701,2.866-4.983,1.165-7.328l-7.175-9.879c-1.706-2.342-4.981-2.87-7.33-1.163c-2.344,1.701-2.866,4.982-1.164,7.327
				L40.689,34.594z"/>
			<path fill="#EAE100" d="M27.912,52.196L16.3,48.42c-2.783-0.897-5.719,0.611-6.615,3.369c-0.899,2.753,0.61,5.715,3.365,6.612
				l11.614,3.777c0.542,0.174,1.086,0.259,1.624,0.259c2.212,0,4.268-1.41,4.99-3.629C32.175,56.056,30.668,53.093,27.912,52.196z"
				/>
			<path fill="#EAE100" d="M137.195,87.709l-11.609-3.771c-2.758-0.892-5.716,0.613-6.611,3.369s0.614,5.717,3.371,6.611
				l11.614,3.771c0.536,0.176,1.08,0.259,1.618,0.259c2.212,0,4.268-1.411,4.99-3.628C141.465,91.563,139.954,88.604,137.195,87.709
				z"/>
			<path fill="#EAE100" d="M24.669,83.938l-11.62,3.766c-2.754,0.895-4.267,3.854-3.371,6.611c0.718,2.22,2.775,3.629,4.991,3.629
				c0.533,0,1.082-0.084,1.62-0.258l11.616-3.768c2.758-0.895,4.27-3.854,3.372-6.609C30.387,84.555,27.449,83.046,24.669,83.938z"
				/>
			<path fill="#EAE100" d="M123.966,62.437c0.539,0,1.081-0.085,1.62-0.259l11.609-3.771c2.759-0.897,4.27-3.856,3.373-6.613
				c-0.897-2.754-3.868-4.26-6.608-3.37l-11.614,3.772c-2.757,0.897-4.268,3.856-3.371,6.612
				C119.695,61.025,121.753,62.437,123.966,62.437z"/>
			<path fill="#EAE100" d="M108.24,18.55l-7.176,9.879c-1.699,2.345-1.179,5.626,1.164,7.328c0.933,0.677,2.015,1.002,3.08,1.002
				c1.623,0,3.225-0.75,4.252-2.165l7.174-9.88c1.703-2.344,1.18-5.625-1.162-7.327C113.215,15.675,109.945,16.202,108.24,18.55z"/>
		</g>
	</g>
	<g>
		<path fill="#EAE100" d="M93.938,134.919H57.356c-2.831,0-5.128,1.854-5.128,4.144c0,2.287,2.297,4.143,5.128,4.143h36.582
			c2.834,0,5.133-1.855,5.133-4.143C99.07,136.773,96.771,134.919,93.938,134.919z"/>
		<path fill="none" stroke="#EAE100" stroke-width="12" stroke-miterlimit="10" d="M110.82,75.007
			C110.82,55.674,95.055,40,75.604,40C56.15,40,40.38,55.674,40.38,75.007c0,8.156,2.822,15.646,7.537,21.593
			c4.133,5.211,8.045,10.897,11.437,16.623v11.627h32.298V113.53c3.359-5.567,7.703-11.979,11.627-16.925
			C108,90.656,110.82,83.17,110.82,75.007z"/>
	</g>
</g>
</svg>
