<?xml version="1.0" encoding="utf-8"?>
<!-- Generator: Adobe Illustrator 16.0.0, SVG Export Plug-In . SVG Version: 6.00 Build 0)  -->
<!DOCTYPE svg PUBLIC "-//W3C//DTD SVG 1.1//EN" "http://www.w3.org/Graphics/SVG/1.1/DTD/svg11.dtd">
<svg version="1.1" id="Livello_1" xmlns="http://www.w3.org/2000/svg" xmlns:xlink="http://www.w3.org/1999/xlink" x="0px" y="0px"
	 width="70px" height="70px" viewBox="0 0 70 70" enable-background="new 0 0 70 70" xml:space="preserve">
<g>
	<path fill="#1C60AD" d="M33.211,4.809c-0.478,0-0.923,0.235-1.193,0.628C31.228,6.586,12.69,33.743,12.69,47.479
		C12.69,58.794,21.896,68,33.211,68c11.315,0,20.521-9.206,20.521-20.521c0-13.736-18.54-40.893-19.327-42.042
		C34.134,5.043,33.688,4.809,33.211,4.809L33.211,4.809z M33.211,65.105c-9.719,0-17.626-7.907-17.626-17.625
		c0-10.925,13.485-32.308,17.626-38.615c4.141,6.308,17.625,27.69,17.625,38.615C50.836,57.198,42.931,65.105,33.211,65.105
		L33.211,65.105z"/>
	<rect x="42.849" y="-17.003" fill="none" width="64.533" height="64.239"/>
	<path fill="#1561AD" d="M31.765,59.796c0,0.798,0.647,1.448,1.446,1.448c7.59,0,13.768-6.175,13.768-13.766
		c0-0.799-0.646-1.445-1.448-1.445c-0.798,0-1.447,0.646-1.447,1.445c0,5.995-4.878,10.871-10.872,10.871
		C32.412,58.35,31.765,58.997,31.765,59.796L31.765,59.796z"/>
</g>
</svg>
