<?xml version="1.0" encoding="utf-8"?>
<!-- Generator: Adobe Illustrator 16.0.0, SVG Export Plug-In . SVG Version: 6.00 Build 0)  -->
<!DOCTYPE svg PUBLIC "-//W3C//DTD SVG 1.1//EN" "http://www.w3.org/Graphics/SVG/1.1/DTD/svg11.dtd">
<svg version="1.1" id="Capa_1" xmlns="http://www.w3.org/2000/svg" xmlns:xlink="http://www.w3.org/1999/xlink" x="0px" y="0px"
	 width="150px" height="150px" viewBox="0 0 150 150" enable-background="new 0 0 150 150" xml:space="preserve">
<g>
	<g transform="translate(0.000000,511.000000) scale(0.100000,-0.100000)">
		<path fill="#7ABA20" d="M713.55,4774.233c-229.209-15.483-445.049-133.281-583.789-318.77
			c-33.994-45.537-44.331-65.269-41.899-82.568c4.556-33.989,93.203-142.7,166.362-204.321
			c108.379-90.781,236.802-151.191,373.11-175.781c99.57-17.598,215.234-15.488,312.695,6.074
			c198.535,44.023,375.82,164.531,490.283,333.34c17.598,25.806,18.213,27.632,18.213,45.835c0,18.223-0.615,20.044-18.223,45.84
			c-28.232,41.597-56.162,75.293-95.01,114.756c-139.053,140.562-317.246,221.914-515.801,235.581
			C770.312,4777.563,763.34,4777.563,713.55,4774.233z M847.129,4660.375c154.219-17.91,297.519-87.129,405.898-195.508
			c29.443-29.443,72.568-81.06,72.568-86.826c0-1.514-7.295-12.139-16.104-23.066c-67.402-84.39-146.641-148.452-240.449-193.979
			c-66.484-32.5-123.555-50.098-200.361-62.852c-46.738-7.578-153.608-7.578-200.356,0
			c-151.182,24.59-282.031,91.074-386.162,195.508c-25.801,26.426-66.172,73.472-69.824,81.973
			c-2.124,5.459,33.691,50.093,68.008,85.01c55.854,56.465,115.059,98.96,187.607,134.795
			C583.916,4652.495,718.101,4675.556,847.129,4660.375z"/>
		<path fill="#7ABA20" d="M713.852,4629.409c-78.926-16.694-152.393-78.003-182.461-152.085
			c-16.997-42.495-23.677-97.451-16.689-139.043c13.97-81.973,66.479-154.199,138.433-190.332
			c64.355-32.188,147.236-35.234,213.115-7.598c77.725,32.188,137.236,103.828,153.926,185.176
			c4.561,22.48,6.67,84.399,3.037,88.345c-0.918,0.918-8.496-3.037-16.689-9.111c-23.076-16.387-52.529-25.498-83.193-25.498
			c-29.434,0-44.326,3.335-69.521,16.084c-81.66,41.289-105.044,151.182-47.656,222.524l10.01,12.134l-7.285,1.821
			C795.82,4635.8,735.405,4633.969,713.852,4629.409z"/>
	</g>
</g>
</svg>
