<?xml version="1.0" encoding="utf-8"?>
<!-- Generator: Adobe Illustrator 16.0.0, SVG Export Plug-In . SVG Version: 6.00 Build 0)  -->
<!DOCTYPE svg PUBLIC "-//W3C//DTD SVG 1.1//EN" "http://www.w3.org/Graphics/SVG/1.1/DTD/svg11.dtd">
<svg version="1.1" id="Capa_1" xmlns="http://www.w3.org/2000/svg" xmlns:xlink="http://www.w3.org/1999/xlink" x="0px" y="0px"
	 width="150px" height="150px" viewBox="0 0 150 150" enable-background="new 0 0 150 150" xml:space="preserve">
<g id="Livello_1_1_">
	<g id="Livello_2">
	</g>
	<g id="Livello_3">
	</g>
	<g id="Livello_2_3_" opacity="0.8">
		<g>
			<path fill="none" stroke="#FFA726" stroke-width="4" stroke-miterlimit="10" d="M100.604,13.582L100.604,13.582
				c0.973,0.358,1.342,1.105,0.92,2.265L81.323,61.073c-0.43,1.161-1.257,0.146,0,0l11.29-0.896c1.06,0.391,1.342,1.104,0.434,2.086
				L37.94,140.908c-0.427,1.157-0.923,0.977-0.295-0.718l29.087-55.327c0.396-1.072-4.483-0.337-4.968-0.515l-15.289,0.739
				c-0.569-0.209-0.826-1.012-0.43-2.084l31.459-66.5c0.429-1.161,1.878-1.841,2.591-2.284L100.604,13.582z"/>
		</g>
	</g>
</g>
</svg>
