<?xml version="1.0" encoding="utf-8"?>
<!-- Generator: Adobe Illustrator 16.0.0, SVG Export Plug-In . SVG Version: 6.00 Build 0)  -->
<!DOCTYPE svg PUBLIC "-//W3C//DTD SVG 1.1//EN" "http://www.w3.org/Graphics/SVG/1.1/DTD/svg11.dtd">
<svg version="1.1" id="Capa_1" xmlns="http://www.w3.org/2000/svg" xmlns:xlink="http://www.w3.org/1999/xlink" x="0px" y="0px"
	 width="150px" height="150px" viewBox="0 0 150 150" enable-background="new 0 0 150 150" xml:space="preserve">
<path fill="#FFA726" d="M93.34,19.665c0-1.849-1.496-3.347-3.347-3.347H54.535c-1.849,0-3.348,1.498-3.348,3.347v21.281
	c0,1.849,1.499,3.347,3.348,3.347h32.11v9.455l-32.11,32.121l-8.27-8.275c-0.702-0.699-1.683-1.054-2.665-0.967
	c-0.987,0.088-1.886,0.61-2.451,1.424L9.236,123.947c-0.711,1.02-0.796,2.354-0.217,3.461c0.576,1.104,1.72,1.795,2.966,1.795
	h127.651c0.002,0.002,0.007,0.002,0.009,0c1.849,0,3.346-1.498,3.346-3.348c0-0.795-0.278-1.527-0.741-2.1L93.34,54.077V19.665z
	 M57.882,37.6V23.012h28.764V37.6H57.882z M18.389,122.51L44.36,85.16l7.807,7.811c0.628,0.627,1.479,0.98,2.368,0.98
	c0.888,0,1.739-0.354,2.368-0.98l32.641-32.652l43.653,62.191H18.389L18.389,122.51z"/>
</svg>
