<?xml version="1.0" encoding="utf-8"?>
<!-- Generator: Adobe Illustrator 16.0.0, SVG Export Plug-In . SVG Version: 6.00 Build 0)  -->
<!DOCTYPE svg PUBLIC "-//W3C//DTD SVG 1.1//EN" "http://www.w3.org/Graphics/SVG/1.1/DTD/svg11.dtd">
<svg version="1.1" id="Capa_1" xmlns="http://www.w3.org/2000/svg" xmlns:xlink="http://www.w3.org/1999/xlink" x="0px" y="0px"
	 width="150px" height="150px" viewBox="0 0 150 150" enable-background="new 0 0 150 150" xml:space="preserve">
<g>
	<path fill="#26AFAD" d="M99.602,42.665H51.375V15.874h13.664c1.073-4.555,5.359-8.038,10.449-8.038c5.092,0,9.11,3.483,10.45,8.038
		h13.664V42.665z M56.733,37.307h37.51V21.232H80.846v-2.68c0.002-2.946-2.409-5.357-5.358-5.357c-2.946,0-5.357,2.411-5.357,5.357
		v2.68H56.733V37.307L56.733,37.307z"/>
	<path fill="#26AFAD" d="M121.034,133.759H29.941V26.59h26.792v10.717h37.51V26.59h26.791V133.759z M35.3,128.4h80.376V31.949
		H99.602v10.716H51.375V31.949H35.3V128.4z"/>
	<polygon fill="#26AFAD" points="65.039,100 51.911,86.872 55.662,83.122 65.039,92.499 95.314,62.224 99.066,65.975 	"/>
</g>
</svg>
